solid Onshape
  facet normal 0 0 -1
    outer loop
      vertex -19.685 19.685 0
      vertex 19.685 19.685 0
      vertex -19.685 -19.685 0
    endloop
  endfacet
  facet normal 0 0 -1
    outer loop
      vertex 19.685 19.685 0
      vertex 19.685 -19.685 0
      vertex -19.685 -19.685 0
    endloop
  endfacet
  facet normal 0 0 1
    outer loop
      vertex 19.685 19.685 39.3701
      vertex -19.685 19.685 39.3701
      vertex 19.685 -19.685 39.3701
    endloop
  endfacet
  facet normal 0 0 1
    outer loop
      vertex -19.685 19.685 39.3701
      vertex -19.685 -19.685 39.3701
      vertex 19.685 -19.685 39.3701
    endloop
  endfacet
  facet normal -1 0 0
    outer loop
      vertex -19.685 -19.685 39.3701
      vertex -19.685 19.685 39.3701
      vertex -19.685 -19.685 0
    endloop
  endfacet
  facet normal -1 0 0
    outer loop
      vertex -19.685 19.685 39.3701
      vertex -19.685 19.685 0
      vertex -19.685 -19.685 0
    endloop
  endfacet
  facet normal 0 1 0
    outer loop
      vertex -19.685 19.685 39.3701
      vertex 19.685 19.685 39.3701
      vertex -19.685 19.685 0
    endloop
  endfacet
  facet normal 0 1 0
    outer loop
      vertex 19.685 19.685 39.3701
      vertex 19.685 19.685 0
      vertex -19.685 19.685 0
    endloop
  endfacet
  facet normal 0 -1 0
    outer loop
      vertex 19.685 -19.685 39.3701
      vertex -19.685 -19.685 39.3701
      vertex 19.685 -19.685 0
    endloop
  endfacet
  facet normal 0 -1 0
    outer loop
      vertex -19.685 -19.685 39.3701
      vertex -19.685 -19.685 0
      vertex 19.685 -19.685 0
    endloop
  endfacet
  facet normal 1 0 0
    outer loop
      vertex 19.685 19.685 39.3701
      vertex 19.685 -19.685 39.3701
      vertex 19.685 19.685 0
    endloop
  endfacet
  facet normal 1 0 0
    outer loop
      vertex 19.685 -19.685 39.3701
      vertex 19.685 -19.685 0
      vertex 19.685 19.685 0
    endloop
  endfacet
endsolid Onshape
