**ABCDEFGHIJKLMNOPQRSTUVWXYZabcdefghijklmnopqrstuvwxyz**************************
**PARASOLID !"#$%&'()*+,-./:;<=>?@[\]^_`{|}~0123456789**************************
**PART1;
MC=unknown;
MC_MODEL=unknown;
MC_ID=unknown;
OS=unknown;
OS_RELEASE=unknown;
FRU=Parasolid 31.1.232;
APPL=Onshape;
SITE=unknown;
USER=unknown;
FORMAT=text;
GUISE=transmit;
KEY=BTGapi::writeModels_.xmt;
FILE=BTGapi::writeModels_.xmt;
DATE=2019-05-04T10:58:12 (EDT);
**PART2;
SCH=SCH_3101232_31100;
USFLD_SIZE=0;
**PART3;
**END_OF_HEADER*****************************************************************
T51 : TRANSMIT FILE created by modeller version 310123223 SCH_3101232_31100_1300
6222 0 12 34 CCCCCCI4 mesh1006 0 I8 polyline1008 0 CCCCCCCDI5 owner1040 0 CCCCCC
I13 boundary_mesh1006 0 I17 boundary_polyline1008 0 CCCA16 index_map_offset0 0 1
 dA9 index_map82 0 A17 node_id_index_map82 0 A20 schema_embedding_map82 0 A5 chi
ld12 0 A14 lowest_node_id0 0 1 dA16 mesh_offset_data206 0 Z1 187 2 3 0 0 0 0 0 0
 1e3 1e-8 0 4 0 1 0 1 1 5 6 7 8 0 0 9 10 11 0 0 0 0 0 0 0 81 255 1 2 181 12 1 13
 0 0 0 14 70 11 CI9 list_type0 0 1 uI10 notransmit0 0 1 lCCCDCCDI12 finger_index
0 0 1 dI12 finger_block1012 0 CZ3 0 4 T1 0 0 5 20 1 15 15 13 255 5 137 0 1 0 16
 0 0 17 0 50 255 6 132 0 16 18 0 0 +0 .0381 .0762 -1 0 0 0 0 1 30 255 7 136 0 10
 19 0 0 +0 0 .0762 0 0 -1 29 255 8 113 0 20 21 0 0 .0762 0 19 8 CCCCCCCA5 owner1
2 0 Z9 48 0 1 17 0 22 V0 16 255 10 120 23 ?24 0 25 7 0 0 1 18 255 11 42 26 27 0
 28 29 ?1 81 1 26 155 30 11 0 0 31 32 33 17 255 27 0 34 35 36 11 37 38 0 39 -18
 28 37 40 41 11 42 43 ?1 29 29 44 0 11 43 44 0 .0762 .0762 29 43 39 0 28 45 29 .
0762 .0762 .0762 29 44 116 0 46 29 47 0 0 0 18 46 104 48 24 49 0 44 ?1 29 47 115
 0 49 44 21 .0762 0 0 18 49 100 32 50 51 46 47 ?1 29 21 114 0 51 47 8 .0762 .076
2 0 18 51 96 52 53 20 49 21 ?1 81 1 52 158 30 51 0 0 54 40 55 17 53 0 34 36 35 5
1 56 57 0 58 +18 20 92 31 37 59 51 8 ?1 81 1 31 154 30 20 0 0 60 26 61 17 37 0 6
2 63 39 20 27 38 0 64 +18 59 27 60 65 42 20 66 ?1 81 1 60 153 30 59 0 0 48 31 67
 17 65 0 62 39 63 59 24 10 0 68 -18 42 32 54 69 28 59 45 ?1 29 66 29 0 59 0 45 0
 0 .0762 29 45 34 0 42 66 43 .0762 0 .0762 81 1 54 157 30 42 0 0 32 52 70 17 69
 0 71 41 72 42 68 73 0 74 +15 255 71 6 0 72 75 0 17 41 0 71 76 69 28 77 78 0 56
 +17 72 0 71 69 76 59 39 79 0 0 -17 68 0 80 24 74 59 69 73 0 72 -16 73 12 81 ?69
 78 79 82 0 0 1 17 74 0 80 68 50 42 83 25 0 77 -15 80 125 0 50 84 0 17 50 0 80 7
4 24 49 85 86 0 83 +17 83 0 87 58 77 49 74 25 0 88 +16 25 119 89 ?83 10 57 19 0
 0 1 17 77 0 87 83 56 42 41 78 0 0 -15 87 123 0 58 90 0 17 56 0 87 77 58 28 53 5
7 0 35 -16 78 17 91 ?41 92 73 93 0 0 1 81 1 91 167 30 78 0 0 94 95 96 16 92 22 9
7 ?35 38 78 98 0 0 1 30 93 19 0 78 82 98 0 +.0762 .0381 .0762 0 1 0 30 82 14 0 7
3 99 93 0 +.0381 0 .0762 1 0 0 30 98 24 0 92 93 100 0 +.0381 .0762 .0762 1 0 0 3
0 100 112 0 101 98 102 0 +0 .0381 0 0 1 0 16 101 88 103 ?64 86 0 100 0 0 1 30 10
2 111 0 86 100 104 0 +.0381 0 0 1 0 0 16 86 84 95 ?50 105 101 102 0 0 1 30 104 1
10 0 105 102 106 0 +.0762 .0381 0 0 1 0 16 105 80 94 ?58 107 86 104 0 0 1 30 106
 109 0 107 104 108 0 +.0381 .0762 0 1 0 0 16 107 76 109 ?110 79 105 106 0 0 1 30
 108 133 0 38 106 111 0 +0 .0762 .0762 0 0 -1 16 38 117 112 ?37 57 92 108 0 0 1
 30 111 134 0 57 108 19 0 +.0762 .0762 .0762 0 0 -1 16 57 118 113 ?53 25 38 111
 0 0 1 30 19 135 0 25 111 7 0 +.0762 0 .0762 0 0 -1 81 1 113 163 30 57 0 0 89 10
3 114 80 255 1 30 115 116 9000 0 0 0 0 3 6 0 0 0 FFTFTFTTFFFFFF1 81 1 89 162 30
 25 0 0 112 113 117 81 1 103 164 30 101 0 0 113 118 119 82 255 3 114 6 3 1 81 1
 118 165 30 79 0 0 103 94 120 82 3 119 6 4 1 16 79 7 118 ?39 73 107 99 0 0 1 81
 1 94 166 30 105 0 0 118 91 121 82 3 120 6 5 1 82 3 121 6 6 1 17 39 0 62 37 65 1
1 72 79 0 76 +30 99 9 0 79 0 82 0 +0 .0381 .0762 0 1 0 15 62 127 0 63 16 0 17 76
 0 71 72 41 11 35 92 0 0 -17 35 0 34 53 27 28 76 92 0 0 +15 34 121 0 36 122 0 17
 36 0 34 27 53 20 110 107 0 0 -14 255 122 122 123 ?75 90 34 5 124 +0 0 75 90 22
 81 1 123 185 125 122 126 0 127 128 129 14 75 1 128 ?130 122 71 5 131 +0 0 130 1
22 22 14 90 124 127 ?122 84 87 5 132 -0 0 122 84 22 50 124 129 0 122 133 132 0 +
.0381 .0762 .0762 0 1 0 0 0 1 13 22 49 0 0 0 0 0 0 9 16 14 16 128 134 ?84 0 62 5
 6 +0 0 84 0 22 81 1 134 182 125 16 135 0 0 136 137 14 84 126 136 ?90 16 80 5 18
 -0 0 90 16 22 81 1 136 183 125 84 138 0 134 127 139 50 18 131 0 84 132 6 0 +.03
81 0 .0762 0 1 0 0 0 1 50 132 130 0 90 124 18 0 +.0762 .0381 .0762 -1 0 0 0 0 1
 80 1 125 0 140 8001 0 0 0 0 3 5 0 0 0 FFFFTFTFFFFFFF2 81 1 138 176 30 84 0 136
 141 126 142 81 1 127 184 125 90 141 0 136 123 143 83 255 3 139 .615686274509804
 .811764705882353 .929411764705882 81 1 141 175 30 90 0 127 144 138 145 83 3 143
 .615686274509804 .811764705882353 .929411764705882 81 1 144 174 30 75 0 128 146
 141 147 82 3 145 6 3 2 81 1 128 186 125 75 144 0 123 148 149 81 1 146 173 30 13
0 0 148 135 144 150 82 3 147 6 2 2 14 130 68 148 ?0 75 151 5 133 -0 0 0 75 22 81
 1 148 187 125 130 146 0 128 0 152 81 1 135 172 30 16 0 134 97 146 153 82 3 150
 6 1 2 81 1 97 171 30 92 0 0 109 135 154 82 3 153 6 0 2 81 1 109 170 30 107 0 0
 81 97 155 82 3 154 6 11 1 81 1 81 169 30 73 0 0 95 109 156 82 3 155 6 10 1 81 1
 95 168 30 86 0 0 91 81 157 82 3 156 6 9 1 82 3 157 6 8 1 83 3 152 .615686274509
804 .811764705882353 .929411764705882 15 151 75 0 64 130 0 50 133 108 0 130 131
 124 0 +.0381 .0381 0 0 0 1 1 0 0 50 131 3 0 75 0 133 0 +.0381 .0381 .0762 0 0 1
 1 0 0 17 64 0 151 110 85 20 63 101 0 36 +17 110 0 151 88 64 51 36 107 0 0 +17 8
5 0 151 64 88 46 50 86 0 63 -17 63 0 62 65 37 46 64 101 0 0 -17 88 0 151 85 110
 49 58 105 0 0 -17 58 0 87 56 83 51 88 105 0 110 +83 3 149 .615686274509804 .811
764705882353 .929411764705882 81 1 126 177 30 122 0 123 138 158 159 82 3 142 6 4
 2 81 1 158 178 30 1 0 160 126 0 161 82 3 159 6 5 2 81 1 160 179 162 1 158 13 0
 0 163 82 3 161 6 0 3 80 1 162 164 165 8038 0 0 0 0 0 0 0 0 0 TTTTTTTTTTTTTF10 8
1 1 13 180 164 1 160 2 0 0 166 98 255 6 163 80 97 114 116 32 49 80 1 164 167 168
 8017 0 0 0 0 0 0 0 0 0 TTTTTTTTTTTTTF3 84 255 6 166 Part 179 255 13 168 SDL/TYS
A_NAME79 14 165 SDL/TYSA_UNAME79 15 140 SDL/TYSA_COLOUR83 3 137 .615686274509804
 .811764705882353 .929411764705882 83 3 129 .615686274509804 .811764705882353 .9
29411764705882 81 1 112 161 30 38 0 0 23 89 169 82 3 117 6 2 1 81 1 23 160 30 10
 0 0 40 112 170 82 3 169 6 1 1 81 1 40 159 30 28 0 0 52 23 171 82 3 170 6 0 1 82
 3 171 6 7 0 79 9 116 BTI/DetId82 3 96 6 7 1 17 24 0 80 50 68 46 65 10 0 85 +81
 1 32 156 30 49 0 0 26 54 172 82 3 70 6 5 0 82 3 172 6 4 0 81 1 48 152 30 46 0 0
 0 60 173 82 3 67 6 1 0 82 3 173 6 0 0 82 3 61 6 2 0 82 3 55 6 6 0 82 3 33 6 3 0
 19 17 138 0 1 0 9 5 S0 74 4 CI16 index_map_offset0 0 1 dCCZ20 15 5 0 0 158 160
 13 2 148 0 0 0 0 0 0 0 0 0 0 0 0 0 0 0 80 1 12 125 174 8040 0 0 0 0 3 5 0 0 0 T
TTFFFFFFFFFFF2 83 3 14 .615686274509804 .811764705882353 .929411764705882 79 17
 174 SDL/TYSA_COLOUR_21 0 
